<svg version="1.2" xmlns="http://www.w3.org/2000/svg" viewBox="0 0 83 45" width="83" height="45">
	<title>ny-Logo-svg</title>
	<defs>
		<clipPath clipPathUnits="userSpaceOnUse" id="cp1">
			<path d="m0 16.01h83v12.05h-83z"/>
		</clipPath>
	</defs>
	<style>
		.s0 { fill: #004aad } 
		.s1 { fill: #fbfaf9 } 
		.s2 { fill: #fe4c5f } 
	</style>
	<g id="Layer">
		<g id="Layer">
			<g id="Layer">
				<path id="Layer" class="s0" d="m6.7 43.9h2.1c-0.4-4-0.5-6.4-0.5-11.3v-28.7h0.2l22.2 40h10.7c-0.4-4-0.5-6.4-0.5-11.3v-19.7c0-5 0.1-7.4 0.5-11.4h-2.1c0.5 4 0.6 6.4 0.6 11.4v28.7l-0.2-0.1-22.2-40h-10.8c0.4 4 0.6 6.4 0.6 11.4v19.7c0 4.9-0.2 7.3-0.6 11.3z"/>
			</g>
		</g>
	</g>
	<g id="Layer">
		<g id="Layer">
			<g id="Layer">
				<path id="Layer" class="s0" d="m76.9 6.4c0.9-1.9 1.3-2.8 2.7-4.9h-1.8c-0.7 2.1-1 2.9-2.1 5l-8.3 17.2-8.7-17.2c-1.1-2-1.5-2.9-2.2-5h-11.3c1.5 1.7 2.2 3 3.3 5l10.1 19.7v6.4c0 4.9-0.2 7.3-0.6 11.3h10.1c-0.4-4-0.6-6.4-0.6-11.3v-6.4z"/>
			</g>
		</g>
	</g>
	<g id="Clip-Path: Clip-Path" clip-path="url(#cp1)">
		<g id="Clip-Path">
			<g id="Layer">
				<path id="Layer" class="s1" d="m-7.7 16h100.6v12.1h-100.6z"/>
			</g>
		</g>
	</g>
	<g id="Layer">
		<g id="Layer">
			<g id="Layer">
				<path id="Layer" class="s2" d="m8.3 22h0.5v1q-0.2 0.1-0.5 0.2-0.3 0.1-0.5 0.1-0.6 0-1-0.4-0.3-0.3-0.3-0.8 0-0.6 0.4-0.9 0.3-0.4 0.9-0.4 0.3 0 0.6 0.1 0.2 0.1 0.4 0.3l-0.3 0.4q-0.2-0.1-0.3-0.2-0.2-0.1-0.4-0.1-0.3 0-0.5 0.2-0.2 0.3-0.2 0.6 0 0.3 0.2 0.5 0.2 0.2 0.5 0.2 0.2 0 0.5-0.1z"/>
			</g>
		</g>
	</g>
	<g id="Layer">
		<g id="Layer">
			<g id="Layer">
				<path id="Layer" class="s2" d="m12.7 22.7h1v0.6h-1.7v-2.5h0.7z"/>
			</g>
		</g>
	</g>
	<g id="Layer">
		<g id="Layer">
			<g id="Layer">
				<path id="Layer" fill-rule="evenodd" class="s2" d="m18 20.8q0.5 0 0.9 0.4 0.4 0.3 0.4 0.8 0 0.6-0.4 0.9-0.4 0.4-0.9 0.4-0.6 0-1-0.4-0.4-0.3-0.4-0.9 0-0.5 0.4-0.8 0.4-0.4 1-0.4zm0 0.5q-0.3 0-0.5 0.2-0.2 0.2-0.2 0.6 0 0.3 0.2 0.5 0.2 0.2 0.5 0.2 0.3 0 0.5-0.2 0.2-0.2 0.2-0.5 0-0.4-0.2-0.6-0.2-0.2-0.5-0.2z"/>
			</g>
		</g>
	</g>
	<g id="Layer">
		<g id="Layer">
			<g id="Layer">
				<path id="Layer" fill-rule="evenodd" class="s2" d="m22.4 20.8h1.2q0.4 0 0.7 0.2 0.2 0.2 0.2 0.4 0 0.2-0.1 0.4-0.1 0.1-0.3 0.2 0.2 0 0.3 0.2 0.2 0.1 0.2 0.4 0 0.3-0.3 0.5-0.2 0.2-0.7 0.2h-1.2zm0.7 0.5v0.4h0.4q0.2 0 0.3 0 0.1-0.1 0.1-0.2 0-0.1-0.1-0.2-0.1 0-0.3 0zm0 0.9v0.5h0.6q0.1 0 0.2 0 0.1-0.1 0.1-0.2 0-0.2-0.1-0.2-0.1-0.1-0.2-0.1z"/>
			</g>
		</g>
	</g>
	<g id="Layer">
		<g id="Layer">
			<g id="Layer">
				<path id="Layer" fill-rule="evenodd" class="s2" d="m29.4 22.8h-1.1l-0.2 0.5h-0.6l1.1-2.5h0.6l1 2.5h-0.7zm-0.1-0.5l-0.4-0.9-0.3 0.9z"/>
			</g>
		</g>
	</g>
	<g id="Layer">
		<g id="Layer">
			<g id="Layer">
				<path id="Layer" class="s2" d="m33.9 22.7h1v0.6h-1.7v-2.5h0.7z"/>
			</g>
		</g>
	</g>
	<g id="Layer">
		<g id="Layer">
			<g id="Layer">
			</g>
		</g>
	</g>
	<g id="Layer">
		<g id="Layer">
			<g id="Layer">
				<path id="Layer" class="s2" d="m42.6 20.8q0.5 0 1 0.3l-0.3 0.5q-0.2-0.2-0.4-0.2-0.2-0.1-0.4-0.1-0.2 0-0.2 0.2 0 0.1 0.1 0.2 0.1 0 0.3 0.1 0.2 0 0.4 0.1 0.2 0.1 0.3 0.2 0.2 0.2 0.2 0.4 0 0.4-0.3 0.6-0.3 0.2-0.7 0.2-0.3 0-0.6-0.1-0.3-0.1-0.5-0.3l0.2-0.5q0.2 0.2 0.4 0.3 0.3 0.1 0.5 0.1 0.1 0 0.2-0.1 0.1 0 0.1-0.1 0-0.1-0.1-0.2-0.1-0.1-0.2-0.1-0.2 0-0.3-0.1-0.2 0-0.4-0.1-0.1-0.1-0.2-0.2-0.1-0.2-0.1-0.4 0-0.3 0.3-0.5 0.2-0.2 0.7-0.2z"/>
			</g>
		</g>
	</g>
	<g id="Layer">
		<g id="Layer">
			<g id="Layer">
				<path id="Layer" class="s2" d="m48.6 21.3h-1.3v0.5h1.2v0.5h-1.2v0.5h1.4v0.5h-2v-2.5h1.9z"/>
			</g>
		</g>
	</g>
	<g id="Layer">
		<g id="Layer">
			<g id="Layer">
				<path id="Layer" fill-rule="evenodd" class="s2" d="m53.3 23.3l-0.3-0.7h-0.5v0.7h-0.6v-2.5h1.1q0.5 0 0.7 0.2 0.3 0.3 0.3 0.7 0 0.6-0.5 0.8l0.5 0.8zm-0.8-1.2h0.5q0.2 0 0.3-0.1 0.1-0.1 0.1-0.3 0-0.2-0.1-0.3-0.1-0.1-0.3-0.1h-0.5z"/>
			</g>
		</g>
	</g>
	<g id="Layer">
		<g id="Layer">
			<g id="Layer">
				<path id="Layer" class="s2" d="m58.6 23.3h-0.7l-0.9-2.5h0.6l0.7 1.8 0.6-1.8h0.6z"/>
			</g>
		</g>
	</g>
	<g id="Layer">
		<g id="Layer">
			<g id="Layer">
				<path id="Layer" class="s2" d="m62.6 20.8h0.6v2.5h-0.6z"/>
			</g>
		</g>
	</g>
	<g id="Layer">
		<g id="Layer">
			<g id="Layer">
				<path id="Layer" class="s2" d="m67.6 20.8q0.3 0 0.6 0.1 0.2 0.1 0.4 0.3l-0.3 0.4q-0.2-0.1-0.3-0.2-0.2-0.1-0.3-0.1-0.3 0-0.5 0.2-0.2 0.2-0.2 0.5 0 0.3 0.2 0.5 0.2 0.3 0.5 0.3 0.1 0 0.3-0.1 0.1-0.1 0.3-0.2l0.3 0.4q-0.2 0.2-0.4 0.3-0.3 0.1-0.6 0.1-0.5 0-0.9-0.4-0.4-0.3-0.4-0.9 0-0.5 0.4-0.8 0.4-0.4 0.9-0.4z"/>
			</g>
		</g>
	</g>
	<g id="Layer">
		<g id="Layer">
			<g id="Layer">
				<path id="Layer" class="s2" d="m73.6 21.3h-1.2v0.5h1.1v0.5h-1.1v0.5h1.3v0.5h-2v-2.5h1.9z"/>
			</g>
		</g>
	</g>
	<g id="Layer">
		<g id="Layer">
			<g id="Layer">
				<path id="Layer" class="s2" d="m77.8 20.8q0.6 0 1 0.3l-0.2 0.5q-0.2-0.2-0.4-0.2-0.3-0.1-0.4-0.1-0.3 0-0.3 0.2 0 0.1 0.1 0.2 0.2 0 0.4 0.1 0.2 0 0.4 0.1 0.2 0.1 0.3 0.2 0.1 0.2 0.1 0.4 0 0.4-0.3 0.6-0.3 0.2-0.7 0.2-0.3 0-0.6-0.1-0.3-0.1-0.5-0.3l0.2-0.5q0.2 0.2 0.5 0.3 0.2 0.1 0.4 0.1 0.2 0 0.3-0.1 0.1 0 0.1-0.1 0-0.1-0.1-0.2-0.1-0.1-0.3-0.1-0.1 0-0.3-0.1-0.2 0-0.3-0.1-0.2-0.1-0.2-0.2-0.2-0.2-0.2-0.4 0-0.3 0.3-0.5 0.3-0.2 0.7-0.2z"/>
			</g>
		</g>
	</g>
</svg>